<?xml version="1.0" encoding="UTF-8"?>
<svg width="731px" height="839px" viewBox="0 0 731 839" version="1.1" xmlns="http://www.w3.org/2000/svg" xmlns:xlink="http://www.w3.org/1999/xlink">
    <!-- Generator: Sketch 53.2 (72643) - https://sketchapp.com -->
    <title>Group</title>
    <desc>Created with Sketch.</desc>
    <defs>
        <linearGradient x1="50%" y1="5.85916112%" x2="62.314344%" y2="86.3814696%" id="linearGradient-1">
            <stop stop-color="#201E1E" offset="0%"></stop>
            <stop stop-color="#503B3B" offset="100%"></stop>
        </linearGradient>
        <linearGradient x1="50%" y1="5.85916112%" x2="55.3020205%" y2="86.3814696%" id="linearGradient-2">
            <stop stop-color="#201E1E" offset="0%"></stop>
            <stop stop-color="#503B3B" offset="100%"></stop>
        </linearGradient>
        <linearGradient x1="50%" y1="5.85916112%" x2="52.286143%" y2="86.3814696%" id="linearGradient-3">
            <stop stop-color="#201E1E" offset="0%"></stop>
            <stop stop-color="#503B3B" offset="100%"></stop>
        </linearGradient>
        <linearGradient x1="50%" y1="0%" x2="50%" y2="100%" id="linearGradient-4">
            <stop stop-color="#CE9F76" offset="0%"></stop>
            <stop stop-color="#A06641" offset="100%"></stop>
        </linearGradient>
        <linearGradient x1="50%" y1="5.85916112%" x2="57.4769577%" y2="86.3814696%" id="linearGradient-5">
            <stop stop-color="#201E1E" offset="0%"></stop>
            <stop stop-color="#503B3B" offset="100%"></stop>
        </linearGradient>
        <linearGradient x1="50%" y1="5.85916112%" x2="63.8890395%" y2="86.3814696%" id="linearGradient-6">
            <stop stop-color="#201E1E" offset="0%"></stop>
            <stop stop-color="#503B3B" offset="100%"></stop>
        </linearGradient>
        <linearGradient x1="50%" y1="5.85916112%" x2="62.7253147%" y2="86.3814696%" id="linearGradient-7">
            <stop stop-color="#201E1E" offset="0%"></stop>
            <stop stop-color="#503B3B" offset="100%"></stop>
        </linearGradient>
        <linearGradient x1="50%" y1="5.85916112%" x2="62.5192918%" y2="86.3814696%" id="linearGradient-8">
            <stop stop-color="#201E1E" offset="0%"></stop>
            <stop stop-color="#503B3B" offset="100%"></stop>
        </linearGradient>
    </defs>
    <g id="Page-1" stroke="none" stroke-width="1" fill="none" fill-rule="evenodd">
        <g id="Group" transform="translate(-60.000000, -18.000000)" stroke="#979797">
            <path d="M291.545547,147.824466 L314.596916,169.377998 L331.631007,198.997981 L360.962825,230.294131 C372.768568,238.40463 379.12432,244.311615 380.030078,248.015085 C382.017002,256.139231 381.273295,261.289433 377.798959,263.465691 C382.513332,283.781574 386.656355,295.467365 390.228027,298.523065 C397.759935,304.966893 392.254157,324.143103 395.347366,328.056633 C400.6408,334.753891 401.503121,344.610265 397.934329,357.625756 L422.16724,412.124693 L441.327829,474.271972 L446.968443,538.744488 L464.898724,589.961943 L468.965141,636.441303 L472.392075,675.611338 L476.840009,726.451458 L483.026172,757.729929 L488.717578,768.964304 L493.873145,827.892708 L473.496989,841.967151 L427.589935,791.626739 L423.536125,745.291473 L415.256641,731.839304 L409.53687,666.462031 C401.963701,659.257638 397.800272,651.348082 397.046582,642.733361 C396.292891,634.118641 396.645695,611.250704 398.104992,574.129549 L371.117198,545.380612 L367.306858,501.828225 L363.187241,454.740784 L350.823264,418.366482 L331.574397,363.431498 L337.287891,333.136179 L331.161987,317.140085 L331.161987,304.085398 L326.650268,304.085398 L299.233203,270.339304 L299.233203,235.694773 L294.823675,219.938173 C292.364939,211.729316 288.034001,206.201568 281.830859,203.354929 C275.627718,200.50829 266.7876,193.78954 255.310504,183.198679 C239.121581,183.039876 226.973418,181.224772 218.866016,177.753367 C210.758613,174.281962 198.512514,169.69783 182.12772,164.000971 L152.151052,160.019904 L133.880542,150.049783 C138.177263,141.943189 143.571685,137.314128 150.063808,136.162599 C178.585463,131.103623 218.207974,130.952644 225.330859,129.577585 C234.88572,127.733039 247.163064,129.535123 262.162891,134.983835 L281.830859,141.378367 L291.545547,147.824466 Z" id="back-braid-left-3" fill="url(#linearGradient-1)" transform="translate(313.876844, 485.422488) scale(-1, 1) rotate(5.000000) translate(-313.876844, -485.422488) "></path>
            <path d="M464.545547,93.8244662 L487.596916,115.377998 L504.631007,144.997981 L533.962825,176.294131 C545.768568,184.40463 552.12432,190.311615 553.030078,194.015085 C555.017002,202.139231 554.273295,207.289433 550.798959,209.465691 C555.513332,229.781574 559.656355,241.467365 563.228027,244.523065 C570.759935,250.966893 565.254157,270.143103 568.347366,274.056633 C573.6408,280.753891 574.503121,290.610265 570.934329,303.625756 L595.16724,358.124693 L602.538941,442.383623 L606.349281,485.93601 L624.310405,534.373338 L644.120239,607.074184 L646.968117,639.625575 L649.840009,672.451458 L656.026172,703.729929 L661.717578,714.964304 L666.873145,773.892708 L646.496989,787.967151 L600.589935,737.626739 L596.536125,691.291473 L588.256641,677.839304 L582.53687,612.462031 C574.963701,605.257638 570.800272,597.348082 570.046582,588.733361 C569.292891,580.118641 569.645695,557.250704 571.104992,520.129549 L544.117198,491.380612 L540.306858,447.828225 L536.187241,400.740784 L523.823264,364.366482 L504.574397,309.431498 L510.287891,279.136179 L504.161987,263.140085 L504.161987,250.085398 L499.650268,250.085398 L472.233203,216.339304 L472.233203,181.694773 L467.823675,165.938173 C465.364939,157.729316 461.034001,152.201568 454.830859,149.354929 C448.627718,146.50829 439.7876,139.78954 428.310504,129.198679 C412.121581,129.039876 399.973418,127.224772 391.866016,123.753367 C383.758613,120.281962 371.512514,115.69783 355.12772,110.000971 L325.151052,106.019904 L306.880542,96.0497829 C311.177263,87.9431889 316.571685,83.3141276 323.063808,82.1625992 C351.585463,77.1036227 391.207974,76.9526437 398.330859,75.5775855 C407.88572,73.7330395 420.163064,75.5351228 435.162891,80.9838355 L454.830859,87.3783667 L464.545547,93.8244662 Z" id="back-braid-right" fill="url(#linearGradient-1)" transform="translate(486.876844, 431.422488) rotate(5.000000) translate(-486.876844, -431.422488) "></path>
            <path d="M457.263978,745.835271 L454.048995,763.589326 L435.294023,786.117027 L431.465647,750.476787 L429.752335,712.85525 L421.730811,695.62185 L421.302143,632.784211 L435.172002,585.328056 L422.204899,544.030919 L432.107981,478.253537 C425.832804,461.349702 421.965331,447.791132 420.505559,437.577825 C419.045787,427.364517 419.679686,418.299347 422.407254,410.382312 L424.226995,384.358804 L409.779983,326.364833 L407.197149,293.538699 L404.982207,277.292887 L405.896024,264.224705 L403.440056,264.052967 L390.877691,229.228361 L393.302777,194.548017 L385.570205,168.996074 C389.096518,167.092611 389.270956,164.598027 386.09352,161.512324 C384.979147,160.430123 383.721552,158.858811 382.320734,156.798389 C371.787426,154.015677 363.740894,150.736571 358.181137,146.961071 C350.885065,142.00648 345.904098,134.860981 343.238234,125.524575 C327.797004,110.173817 320.076389,102.498438 320.076389,102.498438 L318.031181,100.945952 C306.068238,103.66359 289.462868,103.029205 273.821893,95.3282043 C269.290074,93.0969151 264.846299,86.9763545 260.490568,76.9665225 C267.291045,68.0030294 274.126319,62.6205482 280.99639,60.819079 C288.533495,58.8427005 314.746079,61.1761318 318.695609,60.819079 C339.484249,58.9397055 335.416436,67.3991585 338.880377,67.6413808 C344.681139,68.0470096 349.354814,70.6162072 352.901403,75.3489737 C352.773966,79.3443065 353.301601,82.1992 354.484306,83.9136544 C355.418938,84.4938628 356.319092,85.1033438 357.184768,85.7420975 C358.133549,85.9372999 359.239268,85.8592835 360.501924,85.5080482 C365.832257,84.0252999 372.389322,86.2965816 380.173117,92.3218933 L390.431823,99.4716935 L393.040729,105.219888 C397.977448,107.206812 403.244984,109.879773 408.843338,113.238769 L426.929817,123.26864 L455.509999,165.879885 L472.125648,228.135518 L476.438374,269.75035 L485.922707,307.144988 C487.05848,314.740493 487.717598,320.442372 487.90006,324.250626 C487.992322,326.176292 494.640439,329.749074 494.788134,331.805846 C495.116829,336.383181 496.891283,342.123932 500.111497,349.028097 C503.533289,346.580334 506.705683,347.196985 509.62868,350.87805 C515.792664,358.640643 510.413045,376.837221 512.702686,381.269061 C516.620968,388.853305 518.569194,397.12573 518.547366,406.086335 L519.422132,435.098789 L524.113081,482.433855 L508.545183,532.675503 L494.788134,592.928454 L500.111497,642.201892 L524.113081,683.030017 L494.4782,712.430725 L506.823182,766.685964 L510.266401,778.799904 L510.266401,835.451892 C494.723083,850.894772 483.952129,857.788001 477.953538,856.131579 C471.954947,854.475157 467.286599,843.318594 463.948493,822.661889 L459.315717,785.939151 L458.633712,747.828101 L457.263978,745.835271 Z M455.872502,560.271697 C456.220495,547.420735 457.368234,538.222003 459.315717,532.675503 C462.017458,524.980854 466.287434,513.872463 472.125648,499.350329 C465.751984,490.336648 461.573523,480.517168 459.590266,469.89189 C457.607008,459.266612 459.334938,450.377184 464.774055,443.223604 L469.734447,417.704601 L450.519037,364.452061 C450.531855,364.752949 450.543441,365.054986 450.553795,365.358171 L452.052828,393.943346 L456.286135,440.079846 L449.525688,492.206171 L452.076269,546.119729 L455.872502,560.271697 Z M446.130523,339.791813 L446.049676,338.732749 C446.071572,339.109542 446.098194,339.463474 446.130523,339.791813 Z M442.766919,310.62223 L441.817675,305.213944 L444.308627,292.399108 L439.879801,291.538232 L428.960162,271.08085 L429.206777,272.428108 C430.095865,279.772435 430.657315,285.315487 430.891128,289.057264 C431.009357,290.949315 434.776183,293.464608 434.929382,295.477925 C435.270324,299.958552 436.44402,305.368721 438.45047,311.708434 C439.908481,309.303999 441.347298,308.941931 442.766919,310.62223 Z M422.65794,236.448491 L426.016011,219.172712 L419.684934,204.945138 L422.65794,236.448491 Z M417.721874,190.31504 C419.606884,189.244073 419.29545,187.614381 416.787573,185.425966 L417.721874,190.31504 Z" id="back-braid-left-2" fill="url(#linearGradient-2)" transform="translate(392.301824, 458.459571) scale(-1, 1) translate(-392.301824, -458.459571) "></path>
            <path d="M224.430025,53.040636 L204.209766,72.4522093 L204.209766,101.230974 L183.714487,141.270413 C187.551106,157.728164 189.838774,167.809335 190.577491,171.513924 C192.197984,179.640524 194.428083,188.878992 197.267787,199.229327 C204.25432,210.176935 209.204077,217.17905 212.117058,220.235673 C218.259923,226.681449 216.784778,252.746026 219.307534,256.660739 C223.624747,263.36002 228.210254,274.180997 233.064056,289.12367 L244.099859,333.617579 L239.5409,393.660837 L270.475554,438.610233 L270.475554,490.735353 L288.13475,518.501553 L279.220727,583.157803 L296.042042,614.163263 L274.578936,681.382787 L279.220727,692.620557 L274.578936,720.824389 L248.96466,734.981009 L227.848811,734.981009 L233.064056,672.063566 L219.307534,655.484339 L212.117058,593.027972 L233.064056,544.872801 L204.209766,504.708324 L212.117058,438.610233 L190.577491,371.793174 L197.267787,333.617579 L162.991171,289.12367 L155.717863,256.660739 L150.721705,240.659811 L150.721705,227.601179 L147.042042,227.601179 L155.717863,171.513924 L183.714487,106.677932 L197.267787,101.230974 C212.226453,104.078474 217.17621,104.078474 212.117058,101.230974 C207.057907,98.3834752 204.422143,88.7905535 204.209766,72.4522093 C220.887171,75.9246632 225.919761,75.9246632 219.307534,72.4522093 C212.695307,68.9797554 212.695307,62.509231 219.307534,53.040636 C257.998148,57.1201384 277.969212,57.1201384 279.220727,53.040636 C280.472241,48.9611336 259.287178,48.9611336 215.665535,53.040636 C230.072208,58.4909951 241.171917,60.293623 248.96466,58.4485196 C256.757403,56.6034162 249.718787,56.6034162 227.848811,58.4485196 L212.117058,58.4485196 L224.430025,53.040636 Z" id="back-braid-left" fill="url(#linearGradient-3)"></path>
            <path d="M259.854491,62.3006024 L276.158436,52.6825901 C281.314131,46.9819428 292.122531,42.2067209 308.583638,38.3569245 C325.044744,34.5071281 350.06176,30.9037783 383.634685,27.546875 L431.804569,33.7227033 L477.408963,52.6825901 L527.921671,108.067644 L557.736205,181.729514 C568.239113,215.821033 573.490568,244.321964 573.490568,267.232306 C573.490568,290.142648 568.239113,325.33432 557.736205,372.807323 L502.921866,457.658378 L477.408963,491.297999 C463.724055,501.9462 452.524108,508.626498 443.809122,511.33889 C435.094136,514.051283 426.823257,516.051403 418.996485,517.339251 C399.742096,520.811 386.340352,522.546875 378.791252,522.546875 C371.242153,522.546875 361.712618,522.546875 350.202649,522.546875 L325.002769,517.339251 L308.583638,502.236515 L285.300613,481.077018 L235.549484,414.349246 L204.763614,359.80393 C201.701176,344.325653 199.405681,328.868849 197.877131,313.433517 C197.361713,308.228821 197.361713,298.206286 197.877131,283.365913 C202.46812,267.479144 204.763614,256.077936 204.763614,249.16229 C204.763614,242.246643 202.46812,234.849854 197.877131,226.971922 L204.763614,145.489215 L217.225565,112.804498 C225.300789,91.6251174 240.331745,73.8174485 259.854491,62.3006024 Z" id="Head" fill="url(#linearGradient-4)"></path>
            <path d="M170.916248,52.4886169 L191.79321,81.5284094 L208.827301,111.148392 L238.159118,142.444542 C249.964862,150.555042 256.320613,156.462026 257.226372,160.165497 C259.213296,168.289642 258.469589,173.439844 254.995253,175.616102 C259.709626,195.931985 263.852648,207.617776 267.424321,210.673476 C274.956229,217.117305 269.450451,236.293514 272.543659,240.207045 C277.837093,246.904302 278.699414,256.760676 275.130622,269.776167 L299.363534,324.275104 L306.735235,408.534034 L310.545575,452.086421 L316.018683,514.644335 L348.316533,573.224596 L351.164411,605.775986 L354.036303,638.601869 L360.222466,669.88034 L365.913872,681.114715 L360.222466,709.310028 C365.75121,722.043531 366.744923,733.40172 363.203604,743.384594 C359.662285,753.367468 350.43599,765.216683 335.524721,778.932237 C321.885916,775.091445 312.223847,770.366794 306.538515,764.758283 C300.853183,759.149772 295.309516,748.87415 289.907515,733.931417 L300.732418,657.441884 L292.452934,643.989715 L286.733164,578.612442 C279.159995,571.408049 274.996566,563.498493 274.242875,554.883773 C273.489185,546.269053 271.528408,523.857266 268.360544,487.648413 L248.313492,457.531023 L244.503152,413.978636 L231.271642,367.688382 L237.131451,329.719706 L221.831732,259.78972 L220.516698,244.758814 L219.449248,232.557804 L216.774656,201.98708 L214.775349,179.134888 L213.450812,163.995362 L194.626521,113.913307 L173.596185,83.1204427 C158.083054,74.6452933 147.224918,68.984399 141.021776,66.13776 C134.818635,63.291121 122.471685,60.6934339 103.980926,58.3446988 C102.12104,62.6881285 97.1373956,63.1241409 89.0299928,59.652736 C80.9225899,56.181331 76.4596194,53.8667052 75.6410812,52.7088584 C76.1405301,58.4175857 80.4554186,54.7572985 88.5857469,41.7279967 C88.3251567,43.5725427 92.9722921,43.5725427 102.527153,41.7279967 C112.082014,39.8834507 124.359358,41.685534 139.359184,47.1342467 L159.027153,53.5287779 L170.916248,52.4886169 Z" id="mid-braid-left" fill="url(#linearGradient-5)" transform="translate(220.777477, 409.980237) scale(-1, 1) rotate(5.000000) translate(-220.777477, -409.980237) "></path>
            <path d="M594.131193,80.4341342 L622.3205,138.37554 L634.494474,178.402884 L650.939786,213.300781 C653.503983,220.540019 655.238961,226.011374 656.144719,229.714844 C656.602721,231.587525 663.810412,233.826145 664.347844,235.816947 C665.543897,240.247465 668.381136,245.54416 672.859563,251.707031 C675.751432,248.651331 678.983202,248.651331 682.554875,251.707031 C690.086783,258.15086 688.278073,277.039595 691.371282,280.953125 C696.664716,287.650382 700.155601,295.39908 701.843938,304.199219 L708.238469,332.511719 L721.875188,378.082031 L716.179875,430.371094 L727.734563,483.789603 L753.181974,523.941947 L753.181974,572.082572 L736.670255,609.507812 L759.140813,660.410697 L764.832219,671.645072 L759.140813,699.840384 L727.734563,723.539062 L716.179875,688.375 L708.238469,651.09429 L691.371282,634.520072 L682.554875,572.082572 L701.843938,523.941947 L672.859563,483.789603 L682.554875,417.711478 C668.922322,401.343485 660.118937,388.133669 656.144719,378.082031 C652.170501,368.030393 652.170501,358.974584 656.144719,350.914603 L656.144719,324.917969 L622.3205,268.270072 L613.402532,235.816947 L607.276628,219.820853 L607.276628,206.766165 L602.764909,206.766165 L575.347844,173.020072 L575.347844,138.37554 L557.9455,113.511719 C564.148642,111.374343 564.148642,108.882336 557.9455,106.035697 C551.742359,103.189058 542.902241,96.4703077 531.425145,85.8794467 C515.236222,85.7206433 503.088059,83.9055392 494.980657,80.4341342 C486.873254,76.9627293 480.620375,70.8989272 476.22202,62.242728 C458.135427,50.1203321 449.09213,44.0591342 449.09213,44.0591342 C449.09213,44.0591342 427.891609,38.5550478 385.490568,27.546875 C424.264005,19.8489583 448.978849,16 459.635099,16 C470.291349,16 479.163745,18.2291667 486.252286,22.6875 C486.826235,30.9126147 491.890639,34.102899 501.4455,32.258353 C511.000361,30.413807 523.277705,32.2158903 538.277532,37.664603 L557.9455,44.0591342 L594.131193,80.4341342 Z" id="mid-braid-right-2" fill="url(#linearGradient-6)" transform="translate(575.161393, 369.769531) rotate(-5.000000) translate(-575.161393, -369.769531) "></path>
            <path d="M524.679875,40.0474155 L549.8205,58.2310092 L573.468938,81.867728 L584.147802,116.449759 C588.851967,132.902539 591.656929,142.980664 592.562688,146.684134 C594.549612,154.80828 597.283987,164.043957 600.765813,174.391165 C609.332161,185.335466 615.401171,192.335466 618.972844,195.391165 C626.504751,201.834994 624.696042,227.891698 627.78925,231.805228 C633.082684,238.502485 638.70508,249.320194 644.656438,264.258353 L658.187688,308.738822 L652.597844,368.763942 L690.527532,413.699759 L690.527532,465.809134 L712.179875,493.566947 L701.250188,558.203665 L721.875188,589.199759 L695.558782,656.398978 L701.250188,667.633353 L695.558782,695.828665 L664.152532,709.981009 L638.261907,709.981009 L644.656438,647.082572 L627.78925,630.508353 L618.972844,568.070853 L644.656438,519.930228 L609.277532,479.777884 L618.972844,413.699759 L592.562688,346.902884 L600.765813,308.738822 L558.738469,264.258353 L549.8205,231.805228 L543.694597,215.809134 L543.694597,202.754447 L539.182878,202.754447 L511.765813,169.008353 L511.765813,134.363822 L511.765813,102.023978 C506.367392,104.870617 500.566611,104.870617 494.363469,102.023978 C488.160328,99.1773389 479.320209,92.4585889 467.843114,81.867728 C451.654191,81.7089246 439.506028,79.8938204 431.398625,76.4224155 C423.291223,72.9510105 417.038344,66.8872085 412.639989,58.2310092 C393.005864,55.2568356 383.956057,51.7306138 385.490568,47.6523438 C386.769557,44.2531727 376.081807,43.7518668 369.045255,34.6413808 C368.108063,33.4279631 369.139313,29.5760163 372.139005,23.0855403 C402.090558,24.3785569 421.843764,24.1027921 431.398625,22.2582461 C440.953486,20.4137001 455.385778,24.2119128 474.6955,33.6528842 L494.363469,40.0474155 L524.679875,40.0474155 Z" id="mid-braid-right" fill="url(#linearGradient-7)"></path>
            <path d="M174.776088,52.0786705 L196.761402,67.1217845 L228.750465,95.4333767 L258.082282,126.729527 C269.888026,134.840026 276.243777,140.747011 277.149536,144.450481 C279.136459,152.574627 278.392753,157.724829 274.918417,159.901087 C279.632789,180.21697 283.775812,191.902761 287.347485,194.958461 C294.879392,201.402289 289.373615,220.578499 292.466823,224.492029 C297.760257,231.189286 298.622578,241.045661 295.053786,254.061152 L319.286698,308.560088 L326.658399,392.819019 L330.468739,436.371406 L348.429863,484.808734 L368.239697,557.50958 L371.087574,590.060971 L373.959467,622.886853 L380.145629,654.165325 L385.837036,665.3997 L390.992603,724.328104 L370.616446,738.402547 L324.709393,688.062135 L320.655582,641.726869 L312.376098,628.2747 L306.656328,562.897427 C299.083159,555.693034 294.91973,547.783477 294.166039,539.168757 C293.412349,530.554037 293.765152,507.6861 295.22445,470.564944 L268.236656,441.816008 L264.426316,398.263621 L260.306699,351.176179 L247.942722,314.801877 L228.693855,259.866894 L234.407348,229.571575 L228.281444,213.575481 L228.281444,200.520794 L223.769726,200.520794 L196.352661,166.7747 L196.352661,132.130169 L191.943133,116.373569 C189.484397,108.164712 185.153458,102.636964 178.950317,99.7903251 C172.747176,96.943686 163.907057,90.224936 152.429962,79.6340751 C136.241039,79.4752717 124.092876,77.6601675 115.985473,74.1887626 C107.87807,70.7173576 95.6319718,66.1332258 79.2471775,60.4363672 L49.2705094,56.4553002 L31,46.4851787 C35.296721,38.3785847 40.6911428,33.7495235 47.1832657,32.597995 C75.7049207,27.5390185 88.0156542,37.6935696 95.1385396,36.3185114 C104.693401,34.4739654 116.498797,33.441127 130.55473,33.2199962 L148.629442,36.193936 L174.776088,52.0786705 Z" id="front-braid-left" fill="url(#linearGradient-8)" transform="translate(210.996302, 384.788346) scale(-1, 1) rotate(5.000000) translate(-210.996302, -384.788346) "></path>
            <path d="M552.152687,712.835271 L548.937703,730.589326 L530.182731,753.117027 L526.354355,717.476787 L524.641043,679.85525 L516.61952,662.62185 L516.190852,599.784211 L530.060711,552.328056 L517.093608,511.030919 L526.996689,445.253537 C520.721513,428.349702 516.854039,414.791132 515.394267,404.577825 C513.934496,394.364517 514.568394,385.299347 517.295963,377.382312 L519.115704,351.358804 L504.668691,293.364833 L502.085858,260.538699 L499.870916,244.292887 L500.784732,231.224705 L498.328765,231.052967 L485.7664,196.228361 L488.191486,161.548017 L480.458913,135.996074 C483.985226,134.092611 484.159664,131.598027 480.982228,128.512324 C479.867855,127.430123 478.61026,125.858811 477.209443,123.798389 C466.676135,121.015677 458.629603,117.736571 453.069846,113.961071 C445.773774,109.00648 440.792806,101.860981 438.126942,92.5245752 C422.685713,77.1738172 414.965098,69.4984382 414.965098,69.4984382 L412.91989,67.9459516 C400.956947,70.6635897 384.351577,70.0292052 368.710601,62.3282043 C364.178783,60.0969151 359.735008,53.9763545 355.379276,43.9665225 C362.179754,35.0030294 369.015028,29.6205482 375.885099,27.819079 C383.422203,25.8427005 409.634787,28.1761318 413.584318,27.819079 C434.372958,25.9397055 430.305144,34.3991585 433.769086,34.6413808 C439.569847,35.0470096 444.243523,37.6162072 447.790112,42.3489737 C447.662675,46.3443065 448.190309,49.1992 449.373014,50.9136544 C450.307646,51.4938628 451.2078,52.1033438 452.073477,52.7420975 C453.022257,52.9372999 454.127976,52.8592835 455.390632,52.5080482 C460.720966,51.0252999 467.27803,53.2965816 475.061826,59.3218933 L485.320531,66.4716935 L487.929438,72.2198882 C492.866156,74.2068122 498.133692,76.8797726 503.732046,80.2387693 L521.818525,90.2686404 L550.398707,132.879885 L567.014356,195.135518 L571.327082,236.75035 L580.811416,274.144988 C581.947189,281.740493 582.606306,287.442372 582.788768,291.250626 C582.881031,293.176292 589.529147,296.749074 589.676842,298.805846 C590.005537,303.383181 591.779992,309.123932 595.000206,316.028097 C598.421998,313.580334 601.594392,314.196985 604.517388,317.87805 C610.681373,325.640643 605.301754,343.837221 607.591394,348.269061 C611.509676,355.853305 613.457903,364.12573 613.436075,373.086335 L614.310841,402.098789 L619.001789,449.433855 L603.433892,499.675503 L589.676842,559.928454 L595.000206,609.201892 L619.001789,650.030017 L589.366909,679.430725 L601.71189,733.685964 L605.15511,745.799904 L605.15511,802.451892 C589.611792,817.894772 578.840837,824.788001 572.842246,823.131579 C566.843656,821.475157 562.175308,810.318594 558.837202,789.661889 L554.204426,752.939151 L553.52242,714.828101 L552.152687,712.835271 Z M550.76121,527.271697 C551.109204,514.420735 552.256942,505.222003 554.204426,499.675503 C556.906166,491.980854 561.176143,480.872463 567.014356,466.350329 C560.640692,457.336648 556.462231,447.517168 554.478974,436.89189 C552.495717,426.266612 554.223647,417.377184 559.662764,410.223604 L564.623155,384.704601 L545.407746,331.452061 C545.420563,331.752949 545.432149,332.054986 545.442503,332.358171 L546.941536,360.943346 L551.174844,407.079846 L544.414396,459.206171 L546.964977,513.119729 L550.76121,527.271697 Z M541.019231,306.791813 L540.938385,305.732749 C540.960281,306.109542 540.986902,306.463474 541.019231,306.791813 Z M537.655628,277.62223 L536.706384,272.213944 L539.197336,259.399108 L534.76851,258.538232 L523.848871,238.08085 L524.095486,239.428108 C524.984574,246.772435 525.546024,252.315487 525.779837,256.057264 C525.898065,257.949315 529.664892,260.464608 529.81809,262.477925 C530.159033,266.958552 531.332729,272.368721 533.339178,278.708434 C534.79719,276.303999 536.236006,275.941931 537.655628,277.62223 Z M517.546649,203.448491 L520.90472,186.172712 L514.573643,171.945138 L517.546649,203.448491 Z M512.610583,157.31504 C514.495593,156.244073 514.184159,154.614381 511.676282,152.425966 L512.610583,157.31504 Z" id="front-braid-right" fill="url(#linearGradient-2)"></path>
        </g>
    </g>
</svg>