<?xml version="1.0" standalone="no"?>
<!DOCTYPE svg PUBLIC "-//W3C//DTD SVG 20010904//EN"
 "http://www.w3.org/TR/2001/REC-SVG-20010904/DTD/svg10.dtd">
<svg version="1.0" xmlns="http://www.w3.org/2000/svg"
 width="839.000000pt" height="839.000000pt" viewBox="0 0 839.000000 839.000000"
 preserveAspectRatio="xMidYMid meet">
<metadata>
Created by potrace 1.11, written by Peter Selinger 2001-2013
</metadata>
<g transform="translate(0.000000,839.000000) scale(0.100000,-0.100000)"
fill="#000000" stroke="none">
<path d="M3115 8351 c-38 -10 -90 -26 -115 -36 -37 -15 -81 -18 -245 -20 -172
-2 -213 -5 -290 -25 -83 -21 -100 -30 -215 -114 -290 -210 -512 -426 -756
-736 -72 -91 -166 -199 -209 -240 -42 -41 -84 -89 -91 -107 -20 -46 -17 -103
7 -142 20 -33 20 -35 3 -135 -21 -127 -48 -215 -76 -252 -21 -26 -23 -39 -23
-164 -1 -106 -4 -143 -18 -172 -21 -47 -22 -111 -1 -197 l16 -66 -96 -280 -96
-279 0 -643 0 -643 -69 -253 c-54 -193 -85 -337 -135 -618 l-66 -366 0 -328
c0 -386 -17 -602 -56 -699 -23 -58 -24 -67 -24 -355 l0 -296 97 -55 c53 -30
100 -56 103 -58 4 -1 100 119 214 268 l207 270 -1 234 -1 234 35 71 36 71 0
325 0 326 24 32 c90 120 92 178 30 691 -13 109 -20 204 -17 210 4 6 58 75 120
153 l113 142 0 453 0 453 120 473 119 474 -41 148 -41 149 22 78 c17 57 22 96
19 148 -3 66 -2 70 20 73 30 5 253 331 260 382 2 19 8 40 12 45 4 6 36 111 70
235 59 216 65 231 142 370 45 80 83 150 86 155 3 6 -19 -13 -49 -41 -30 -27
-81 -70 -114 -94 -33 -24 -66 -51 -73 -59 -30 -37 -54 -98 -72 -179 -11 -49
-17 -66 -14 -39 9 78 33 159 59 199 14 20 53 56 87 79 35 24 102 82 150 130
85 84 89 87 145 93 123 15 228 47 353 108 258 126 292 139 444 173 140 32 153
37 233 90 l84 56 -31 39 c-50 63 -98 80 -221 79 -65 0 -130 -7 -174 -18z
m-1138 -1128 c-3 -10 -5 -2 -5 17 0 19 2 27 5 18 2 -10 2 -26 0 -35z m10 -105
c-2 -18 -4 -6 -4 27 0 33 2 48 4 33 2 -15 2 -42 0 -60z m10 -115 c-2 -16 -4
-3 -4 27 0 30 2 43 4 28 2 -16 2 -40 0 -55z"/>
<path d="M4235 8340 c-27 -5 -167 -9 -311 -9 l-261 -1 -12 -26 c-11 -25 -10
-26 11 -19 13 4 46 9 73 10 l50 3 -50 -7 c-68 -10 -120 -39 -184 -104 l-53
-55 32 -61 c46 -86 89 -121 190 -156 77 -26 98 -29 227 -29 l143 -1 119 -119
c67 -67 122 -131 126 -145 28 -113 149 -214 320 -267 58 -18 90 -43 116 -91
10 -19 9 -26 -4 -41 -15 -16 -13 -27 22 -142 l38 -125 -13 -170 -12 -170 60
-170 c33 -93 66 -175 74 -181 10 -8 14 -34 13 -95 -1 -46 3 -118 9 -159 6 -41
16 -142 22 -225 10 -131 21 -187 84 -440 l72 -290 -8 -120 c-4 -66 -13 -145
-20 -175 -22 -94 -14 -239 20 -370 17 -63 43 -150 59 -193 l29 -78 -50 -329
-50 -330 66 -207 65 -206 -66 -216 -65 -216 -3 -331 -4 -332 41 -88 41 -89 10
-185 c8 -177 36 -490 45 -518 4 -13 149 150 171 193 6 11 16 55 23 98 21 129
34 92 43 -119 9 -229 40 -521 72 -664 38 -176 84 -248 149 -235 49 10 131 64
212 138 l74 69 0 271 c0 239 -2 279 -20 341 -20 72 -140 591 -140 606 0 5 66
74 147 153 l147 144 -120 204 -119 204 -27 245 -28 245 66 290 c38 168 99 401
146 554 l81 265 -22 240 c-12 133 -26 331 -31 441 -7 183 -10 206 -35 270 -24
62 -27 82 -26 182 2 119 -9 162 -47 196 -15 14 -29 17 -50 12 -27 -6 -31 -3
-46 35 -9 22 -21 62 -27 88 -6 30 -22 60 -43 82 -30 31 -34 43 -41 110 -3 41
-30 172 -59 290 -39 156 -57 253 -66 353 -7 76 -10 140 -8 143 3 2 11 -60 18
-138 9 -106 26 -198 65 -358 29 -118 56 -244 60 -280 l7 -65 90 -94 c78 -81
89 -97 85 -121 -5 -22 0 -31 23 -48 39 -29 50 -75 50 -206 0 -92 4 -120 26
-180 23 -63 27 -95 36 -275 7 -162 13 -213 29 -253 17 -43 19 -66 14 -166 -3
-65 -2 -148 2 -187 7 -59 5 -81 -13 -140 -12 -38 -33 -107 -47 -152 l-25 -83
160 -182 c89 -101 168 -191 176 -200 13 -15 2 -41 -109 -250 -68 -128 -125
-241 -127 -250 -2 -9 15 -151 38 -315 l42 -298 86 -87 85 -87 -27 -268 c-15
-147 -29 -287 -33 -310 l-5 -43 130 0 130 0 148 66 c82 37 150 68 152 69 1 1
15 64 30 141 l28 138 -29 54 -29 54 132 338 132 338 -103 153 -103 154 55 325
55 325 -108 135 -107 135 -1 263 0 263 -190 226 -191 225 6 56 c4 32 17 167
29 301 l22 244 -67 222 c-85 281 -128 385 -212 513 -24 37 -37 69 -41 107 -16
148 -18 170 -13 165 3 -3 11 -52 17 -110 10 -92 15 -111 45 -156 84 -128 126
-229 215 -520 l67 -222 -24 -258 c-33 -343 -36 -334 155 -558 59 -70 126 -150
149 -179 l43 -52 0 -260 0 -260 110 -140 c60 -77 108 -145 106 -151 -2 -6 -7
-37 -11 -68 -7 -51 -5 -60 16 -82 l23 -24 -32 -108 c-18 -59 -48 -162 -68
-230 l-36 -123 101 -152 c55 -84 101 -157 101 -162 0 -6 -20 -62 -45 -125 -39
-98 -45 -122 -40 -161 6 -44 11 -50 101 -124 67 -55 96 -86 103 -109 50 -178
106 -341 168 -488 l75 -178 142 129 142 129 16 139 16 138 -38 65 c-22 36 -97
171 -169 300 l-129 235 67 195 67 195 -21 236 c-11 130 -25 243 -31 250 -6 8
-71 93 -144 189 l-133 175 -82 265 -81 265 6 260 5 260 -86 216 c-47 118 -112
296 -143 395 -58 180 -82 232 -142 311 -23 30 -37 65 -49 121 -22 100 -53 162
-93 185 -30 18 -34 18 -57 3 -24 -16 -26 -16 -50 11 -13 15 -37 51 -52 80 -20
37 -38 56 -68 71 -36 17 -44 28 -74 101 -18 46 -77 158 -132 250 -73 125 -118
218 -175 362 -61 152 -100 232 -182 369 -120 201 -128 212 -106 147 9 -27 14
-50 12 -52 -3 -3 -22 52 -43 123 l-39 127 -125 128 c-80 81 -169 159 -243 213
l-116 84 -149 0 c-147 0 -150 0 -263 39 -63 22 -158 58 -210 79 -89 38 -226
74 -267 71 -10 -1 -40 -5 -68 -9z m-143 -47 c-51 -2 -132 -2 -180 0 -48 1 -6
3 93 3 99 0 138 -2 87 -3z m157 -31 c14 -16 44 -35 66 -42 62 -20 105 -56 104
-88 -1 -21 -2 -22 -6 -7 -8 35 -53 72 -101 86 -26 7 -55 24 -66 37 -10 13 -28
28 -40 32 -18 8 -19 9 -3 9 11 1 31 -12 46 -27z m274 -212 c75 -6 79 -7 176
-74 66 -45 103 -77 111 -97 7 -16 15 -29 19 -29 3 0 79 -40 169 -89 l164 -88
143 -215 144 -216 85 -320 c48 -178 85 -338 84 -359 l-1 -38 -4 40 c-3 22 -43
184 -90 360 l-85 319 -143 211 -143 210 -138 77 c-77 42 -151 82 -166 90 -15
7 -37 28 -50 47 -13 19 -63 61 -112 95 -85 58 -91 60 -168 66 -79 5 -98 15
-98 50 0 8 6 4 13 -10 11 -23 20 -26 90 -30z m1299 -768 c22 -79 38 -146 36
-148 -4 -3 -89 288 -95 326 -7 40 22 -50 59 -178z m100 -359 c29 -95 35 -107
106 -190 42 -48 85 -94 95 -102 22 -16 57 -87 56 -116 0 -11 -6 -1 -13 21 -8
26 -41 74 -87 125 -128 145 -135 157 -172 280 -19 63 -37 130 -40 149 -6 37
-3 27 55 -167z m-846 81 c-8 -21 -11 -17 -20 21 -7 28 -6 29 10 13 10 -10 14
-23 10 -34z m45 -221 c24 -53 30 -77 25 -108 -7 -58 -27 -147 -31 -143 -2 2
-9 55 -15 118 -5 63 -13 134 -16 158 -3 23 -3 42 1 42 3 0 20 -30 36 -67z
m117 -693 c39 -73 59 -101 76 -106 23 -5 23 -6 11 -72 -7 -37 -11 -80 -8 -96
4 -21 3 -27 -6 -22 -7 4 -18 3 -26 -4 -18 -15 -20 -9 -39 83 -9 43 -24 90 -34
105 -16 24 -44 212 -32 212 3 0 29 -45 58 -100z m258 -1101 l95 -264 -21 -115
c-13 -70 -33 -142 -53 -185 -27 -61 -31 -80 -31 -150 2 -97 35 -209 92 -305
l38 -66 -28 -69 c-72 -175 -117 -315 -123 -381 -9 -105 -16 -156 -21 -151 -2
2 -13 35 -23 73 -14 52 -21 136 -30 344 l-12 275 34 251 33 250 -22 245 c-24
273 -39 527 -30 518 4 -3 49 -125 102 -270z"/>
<path d="M5481 4779 l-43 -70 9 -102 c9 -92 7 -128 -24 -362 l-34 -260 12
-235 c8 -176 15 -241 26 -259 19 -29 27 -20 41 46 6 28 39 122 72 208 l62 155
-51 103 c-88 180 -101 308 -42 432 15 33 38 111 50 173 l22 113 -23 65 c-12
35 -25 64 -28 64 -3 -1 -25 -32 -49 -71z"/>
<path d="M3075 8060 l-20 -9 20 0 c11 0 27 4 35 9 13 9 13 10 0 9 -8 0 -24 -4
-35 -9z"/>
<path d="M1880 6711 c-88 -130 -120 -170 -136 -171 -20 0 -21 -4 -16 -65 4
-50 -1 -84 -18 -146 l-23 -80 41 -149 42 -149 -120 -474 -120 -475 0 -453 1
-452 -115 -146 c-136 -171 -128 -132 -91 -437 14 -115 28 -261 32 -324 7 -136
-7 -198 -62 -279 l-35 -51 0 -325 0 -325 -35 -70 -35 -70 0 -234 0 -234 -83
-108 c-46 -60 -84 -116 -85 -124 0 -8 -8 -51 -18 -95 -30 -140 2 -250 110
-378 31 -36 91 -95 135 -132 l81 -66 94 46 c128 63 184 116 236 227 22 47 48
115 57 151 l17 65 -87 375 -87 375 35 65 35 65 0 331 0 331 35 49 c68 94 68
96 74 516 l6 380 83 151 82 150 0 218 c0 219 0 219 46 454 l45 236 -46 185
-46 186 46 351 45 350 -2 463 -3 463 -115 -171z"/>
<path d="M1922 5270 c0 -14 4 -36 8 -50 8 -24 8 -24 8 5 0 17 -3 39 -8 50 -8
18 -9 18 -8 -5z"/>
<path d="M1941 5174 c0 -11 3 -14 6 -6 3 7 2 16 -1 19 -3 4 -6 -2 -5 -13z"/>
<path d="M2005 4909 c4 -15 -7 -96 -25 -191 l-32 -165 59 -184 60 -184 -40
-331 -39 -331 145 -200 145 -201 -105 -238 -105 -239 36 -313 35 -314 58 -69
c32 -39 63 -78 69 -87 9 -13 6 -83 -12 -287 -12 -148 -23 -287 -23 -307 l-1
-38 102 0 102 0 120 66 c67 37 122 67 123 68 1 1 13 65 26 142 l23 140 -24 54
-23 54 107 335 107 336 -34 65 c-19 36 -56 106 -83 157 l-50 91 45 324 44 323
-87 137 -88 136 0 150 0 149 -172 229 c-146 194 -194 268 -316 484 -79 140
-146 257 -149 260 -2 3 -2 -7 2 -21z"/>
<path d="M1960 4405 c-28 -73 -40 -156 -40 -292 l0 -143 -45 -81 c-74 -134
-75 -140 -75 -513 l0 -331 -65 -253 -65 -254 0 -511 0 -512 40 -169 39 -168
-29 -88 c-16 -49 -40 -111 -54 -139 -15 -28 -26 -60 -26 -71 0 -11 -11 -48
-25 -82 -25 -61 -25 -65 -25 -354 l0 -292 104 -60 104 -60 206 271 206 270 0
234 0 233 35 70 c43 86 44 100 6 100 -17 0 -32 3 -34 8 -3 4 6 129 19 277 33
382 36 345 -43 439 l-66 78 -35 317 -35 316 102 234 c56 129 100 240 97 248
-3 8 -67 99 -143 204 l-136 190 37 312 c20 172 37 326 37 342 1 17 -17 82 -39
145 -39 112 -40 114 -52 85z"/>
<path d="M2650 3804 l0 -139 89 -140 89 -140 -30 -209 -29 -208 36 -155 c19
-85 35 -179 35 -208 0 -43 7 -67 34 -115 l33 -61 -107 -336 -108 -336 24 -57
c17 -41 21 -68 17 -95 -6 -34 -2 -40 55 -98 l60 -62 -63 -276 c-35 -152 -70
-300 -79 -329 -13 -44 -16 -107 -16 -341 l0 -287 64 -56 c135 -118 224 -163
269 -133 58 38 98 179 137 482 24 181 30 268 30 412 0 118 4 184 11 188 16 10
18 4 35 -86 16 -82 17 -85 102 -186 47 -57 86 -102 88 -100 9 8 44 391 49 541
7 167 7 169 45 250 l37 81 8 311 7 310 -72 246 -72 245 65 209 66 209 -15 90
c-7 50 -14 96 -14 103 0 8 -17 12 -52 12 -29 0 -80 7 -113 15 -33 8 -65 14
-71 15 -7 0 -13 -46 -17 -129 -6 -121 -29 -254 -48 -276 -5 -5 -9 13 -9 42 0
105 -22 208 -71 338 l-50 130 -151 135 c-109 97 -171 163 -224 234 l-74 99 0
-139z"/>
<path d="M5904 3237 l-61 -272 27 -245 27 -245 113 -190 c62 -104 115 -196
118 -203 3 -9 -53 -72 -142 -161 l-146 -146 64 -281 c35 -155 71 -305 80 -334
12 -42 16 -101 16 -263 l0 -209 42 -54 c24 -30 47 -54 51 -54 5 0 54 25 108
56 l99 56 0 289 c0 284 0 290 -25 351 -37 93 -47 205 -55 598 -7 347 -8 361
-49 635 -22 154 -51 334 -62 400 -20 116 -124 523 -138 537 -3 4 -34 -115 -67
-265z"/>
</g>
</svg>
